<?xml version="1.0" encoding="UTF-8" standalone="no"?>
<!DOCTYPE svg PUBLIC "-//W3C//DTD SVG 1.1//EN"
 "http://www.w3.org/Graphics/SVG/1.1/DTD/svg11.dtd">
<!-- Generated by graphviz version 15.1.0 (20260618.0150)
 -->
<!-- Title: G Pages: 1 -->
<svg width="676pt" height="348pt"
 viewBox="0.00 0.00 676.00 348.00" xmlns="http://www.w3.org/2000/svg" xmlns:xlink="http://www.w3.org/1999/xlink">
<g id="graph0" class="graph" transform="scale(1 1) rotate(0) translate(4 344)">
<title>G</title>
<polygon fill="white" stroke="none" points="-4,4 -4,-344 671.75,-344 671.75,4 -4,4"/>
<g id="clust1" class="cluster">
<title>cluster_module.flink</title>
<polygon fill="none" stroke="black" points="18.62,-257 18.62,-332 659.75,-332 659.75,-257 18.62,-257"/>
<text xml:space="preserve" text-anchor="middle" x="339.19" y="-314.7" font-family="sans-serif" font-size="14.00">module.flink</text>
</g>
<g id="clust2" class="cluster">
<title>cluster_module.kafka</title>
<polygon fill="none" stroke="black" points="230.38,-174 230.38,-249 401.88,-249 401.88,-174 230.38,-174"/>
<text xml:space="preserve" text-anchor="middle" x="316.12" y="-231.7" font-family="sans-serif" font-size="14.00">module.kafka</text>
</g>
<g id="clust3" class="cluster">
<title>cluster_module.minio</title>
<polygon fill="none" stroke="black" points="230,-91 230,-166 402.25,-166 402.25,-91 230,-91"/>
<text xml:space="preserve" text-anchor="middle" x="316.12" y="-148.7" font-family="sans-serif" font-size="14.00">module.minio</text>
</g>
<g id="clust4" class="cluster">
<title>cluster_module.trino</title>
<polygon fill="none" stroke="black" points="233.38,-8 233.38,-83 398.88,-83 398.88,-8 233.38,-8"/>
<text xml:space="preserve" text-anchor="middle" x="316.12" y="-65.7" font-family="sans-serif" font-size="14.00">module.trino</text>
</g>
<!-- docker_network.shared_net -->
<g id="node1" class="node">
<title>docker_network.shared_net</title>
<polygon fill="none" stroke="black" points="182.5,-176 0,-176 0,-140 182.5,-140 182.5,-176"/>
<text xml:space="preserve" text-anchor="middle" x="91.25" y="-152.2" font-family="sans-serif" font-size="14.00">docker_network.shared_net</text>
</g>
<!-- module.flink.docker_container.jobmanager -->
<g id="node2" class="node">
<title>module.flink.docker_container.jobmanager</title>
<polygon fill="none" stroke="black" points="413.75,-301 218.5,-301 218.5,-265 413.75,-265 413.75,-301"/>
<text xml:space="preserve" text-anchor="middle" x="316.12" y="-277.2" font-family="sans-serif" font-size="14.00">docker_container.jobmanager</text>
</g>
<!-- module.flink.docker_container.jobmanager&#45;&gt;docker_network.shared_net -->
<g id="edge1" class="edge">
<title>module.flink.docker_container.jobmanager&#45;&gt;docker_network.shared_net</title>
<path fill="none" stroke="black" d="M245.36,-264.51C236.12,-261.15 226.94,-257.32 218.5,-253 181.75,-234.19 144.57,-204.66 120.17,-183.51"/>
<polygon fill="black" stroke="black" points="122.74,-181.11 112.92,-177.14 118.12,-186.37 122.74,-181.11"/>
</g>
<!-- module.flink.docker_image.flink -->
<g id="node4" class="node">
<title>module.flink.docker_image.flink</title>
<polygon fill="none" stroke="black" points="155.88,-301 26.62,-301 26.62,-265 155.88,-265 155.88,-301"/>
<text xml:space="preserve" text-anchor="middle" x="91.25" y="-277.2" font-family="sans-serif" font-size="14.00">docker_image.flink</text>
</g>
<!-- module.flink.docker_container.jobmanager&#45;&gt;module.flink.docker_image.flink -->
<g id="edge2" class="edge">
<title>module.flink.docker_container.jobmanager&#45;&gt;module.flink.docker_image.flink</title>
<path fill="none" stroke="black" d="M218.02,-283C201.05,-283 183.64,-283 167.38,-283"/>
<polygon fill="black" stroke="black" points="167.84,-279.5 157.84,-283 167.84,-286.5 167.84,-279.5"/>
</g>
<!-- module.flink.docker_container.taskmanager -->
<g id="node3" class="node">
<title>module.flink.docker_container.taskmanager</title>
<polygon fill="none" stroke="black" points="651.75,-301 449.75,-301 449.75,-265 651.75,-265 651.75,-301"/>
<text xml:space="preserve" text-anchor="middle" x="550.75" y="-277.2" font-family="sans-serif" font-size="14.00">docker_container.taskmanager</text>
</g>
<!-- module.flink.docker_container.taskmanager&#45;&gt;module.flink.docker_container.jobmanager -->
<g id="edge3" class="edge">
<title>module.flink.docker_container.taskmanager&#45;&gt;module.flink.docker_container.jobmanager</title>
<path fill="none" stroke="black" d="M449.41,-283C441.47,-283 433.43,-283 425.44,-283"/>
<polygon fill="black" stroke="black" points="425.7,-279.5 415.7,-283 425.7,-286.5 425.7,-279.5"/>
</g>
<!-- module.kafka.docker_container.kafka -->
<g id="node5" class="node">
<title>module.kafka.docker_container.kafka</title>
<polygon fill="none" stroke="black" points="393.88,-218 238.38,-218 238.38,-182 393.88,-182 393.88,-218"/>
<text xml:space="preserve" text-anchor="middle" x="316.12" y="-194.2" font-family="sans-serif" font-size="14.00">docker_container.kafka</text>
</g>
<!-- module.kafka.docker_container.kafka&#45;&gt;docker_network.shared_net -->
<g id="edge4" class="edge">
<title>module.kafka.docker_container.kafka&#45;&gt;docker_network.shared_net</title>
<path fill="none" stroke="black" d="M238.11,-185.49C223.87,-182.8 208.81,-179.96 193.97,-177.17"/>
<polygon fill="black" stroke="black" points="194.65,-173.73 184.17,-175.32 193.35,-180.61 194.65,-173.73"/>
</g>
<!-- module.minio.docker_container.minio -->
<g id="node6" class="node">
<title>module.minio.docker_container.minio</title>
<polygon fill="none" stroke="black" points="394.25,-135 238,-135 238,-99 394.25,-99 394.25,-135"/>
<text xml:space="preserve" text-anchor="middle" x="316.12" y="-111.2" font-family="sans-serif" font-size="14.00">docker_container.minio</text>
</g>
<!-- module.minio.docker_container.minio&#45;&gt;docker_network.shared_net -->
<g id="edge5" class="edge">
<title>module.minio.docker_container.minio&#45;&gt;docker_network.shared_net</title>
<path fill="none" stroke="black" d="M237.8,-131.22C223.67,-133.82 208.74,-136.57 194.03,-139.28"/>
<polygon fill="black" stroke="black" points="193.53,-135.81 184.33,-141.06 194.8,-142.69 193.53,-135.81"/>
</g>
<!-- module.trino.docker_container.trino -->
<g id="node7" class="node">
<title>module.trino.docker_container.trino</title>
<polygon fill="none" stroke="black" points="390.88,-52 241.38,-52 241.38,-16 390.88,-16 390.88,-52"/>
<text xml:space="preserve" text-anchor="middle" x="316.12" y="-28.2" font-family="sans-serif" font-size="14.00">docker_container.trino</text>
</g>
<!-- module.trino.docker_container.trino&#45;&gt;docker_network.shared_net -->
<g id="edge6" class="edge">
<title>module.trino.docker_container.trino&#45;&gt;docker_network.shared_net</title>
<path fill="none" stroke="black" d="M281.54,-52.31C262.93,-62.48 239.41,-75.39 218.5,-87 190.61,-102.49 159.35,-120.07 134.92,-133.86"/>
<polygon fill="black" stroke="black" points="133.2,-130.81 126.21,-138.77 136.64,-136.9 133.2,-130.81"/>
</g>
</g>
</svg>
